<?xml version="1.0" encoding="iso-8859-1"?>
<!-- Generator: Adobe Illustrator 19.0.0, SVG Export Plug-In . SVG Version: 6.00 Build 0)  -->
<svg xmlns="http://www.w3.org/2000/svg" xmlns:xlink="http://www.w3.org/1999/xlink" version="1.1" id="Layer_1" x="0px" y="0px" viewBox="0 0 511.999 511.999" style="enable-background:new 0 0 511.999 511.999;" xml:space="preserve" width="512px" height="512px">
<g>
	<g>
		<path d="M461.947,97.584L372.261,7.898c-10.53-10.532-27.667-10.53-38.199,0l-66.485,66.486    c-10.531,10.532-10.531,27.667,0,38.199l2.788,2.787L100.058,285.678c-9.748,9.749-10.466,25.152-2.166,35.742l-52.573,52.573    c-2.026,2.026-3.165,4.774-3.165,7.64s1.139,5.614,3.165,7.64l35.254,35.253c2.11,2.11,4.875,3.165,7.64,3.165    c2.766,0,5.53-1.056,7.64-3.165l52.572-52.572c4.87,3.816,10.755,5.731,16.642,5.731c6.917,0,13.835-2.633,19.101-7.899    l48.416-48.416c3.295,8.7,9.868,15.799,18.207,19.779l-76.339,132.222c-2.984,5.168-1.213,11.776,3.954,14.759    c1.702,0.982,3.559,1.449,5.391,1.449c3.734,0,7.366-1.937,9.367-5.403l63.52-110.019v127.039c0,5.967,4.838,10.804,10.804,10.804    c5.967,0,10.804-4.837,10.804-10.804V374.157l63.52,110.019c2.002,3.466,5.632,5.403,9.367,5.403c1.832,0,3.691-0.467,5.391-1.449    c5.168-2.983,6.939-9.592,3.954-14.759L283.61,340.149c11.076-6.139,18.592-17.947,18.592-31.482    c0-15.364-9.686-28.503-23.269-33.648l75.539-75.54l2.789,2.789c0,0,0,0.001,0.001,0.001c5.102,5.102,11.885,7.911,19.099,7.911    c7.215,0,13.998-2.81,19.1-7.911l66.486-66.486C472.478,125.251,472.478,108.116,461.947,97.584z M88.213,401.606l-19.974-19.974    l44.787-44.788L133,356.819L88.213,401.606z M280.594,308.668c0,7.92-6.443,14.363-14.362,14.363    c-7.92,0-14.363-6.443-14.363-14.363c0-7.92,6.444-14.362,14.363-14.362C274.152,294.305,280.594,300.748,280.594,308.668z     M168.889,354.507c-2.108,2.106-5.534,2.107-7.642,0h0.001l-5.314-5.314c-0.005-0.004-0.009-0.011-0.014-0.015l-35.254-35.253    l-0.001-0.001l-5.328-5.328c-2.106-2.106-2.106-5.533,0-7.639l170.282-170.283l53.549,53.549L168.889,354.507z M446.667,120.503    l-66.487,66.486c-1.376,1.376-2.984,1.582-3.819,1.582c-0.835,0-2.443-0.206-3.82-1.583h0.001l-89.685-89.684    c-2.106-2.107-2.106-5.534,0-7.64l39.389-39.39l50.227,50.227c2.11,2.11,4.875,3.165,7.64,3.165c2.765,0,5.53-1.055,7.64-3.165    c4.219-4.219,4.219-11.06,0-15.279l-50.227-50.227L349.34,23.18c2.108-2.107,5.535-2.106,7.641,0l89.685,89.685    C448.773,114.97,448.773,118.397,446.667,120.503z" fill="#FFFFFF"/>
	</g>
</g>
<g>
</g>
<g>
</g>
<g>
</g>
<g>
</g>
<g>
</g>
<g>
</g>
<g>
</g>
<g>
</g>
<g>
</g>
<g>
</g>
<g>
</g>
<g>
</g>
<g>
</g>
<g>
</g>
<g>
</g>
</svg>
